<?xml version="1.0" encoding="utf-8"?>
<!-- Generator: Adobe Illustrator 20.0.0, SVG Export Plug-In . SVG Version: 6.00 Build 0)  -->
<svg version="1.1" id="Layer_1" xmlns="http://www.w3.org/2000/svg" xmlns:xlink="http://www.w3.org/1999/xlink" x="0px" y="0px"
	 viewBox="0 0 1000 222.5" style="enable-background:new 0 0 1000 222.5;" xml:space="preserve">
<style type="text/css">
	.st0{fill:url(#SVGID_1_);stroke:#51B848;stroke-width:5;stroke-miterlimit:10;}
	.st1{fill:url(#SVGID_2_);stroke:#51B848;stroke-width:5;stroke-miterlimit:10;}
	.st2{fill:url(#SVGID_3_);stroke:#51B848;stroke-width:5;stroke-miterlimit:10;}
	.st3{fill:url(#SVGID_4_);stroke:#51B848;stroke-width:5;stroke-miterlimit:10;}
	.st4{fill:url(#SVGID_5_);stroke:#51B848;stroke-width:5;stroke-miterlimit:10;}
	.st5{fill:url(#SVGID_6_);stroke:#51B848;stroke-width:5;stroke-miterlimit:10;}
	.st6{fill:url(#SVGID_7_);stroke:#51B848;stroke-width:5;stroke-miterlimit:10;}
	.st7{fill:url(#SVGID_8_);stroke:#51B848;stroke-width:5;stroke-miterlimit:10;}
</style>
<g>
	<g>
		<linearGradient id="SVGID_1_" gradientUnits="userSpaceOnUse" x1="108.0947" y1="26.501" x2="108.0947" y2="94.0635">
			<stop  offset="0.49" style="stop-color:#F2F2F2"/>
			<stop  offset="0.51" style="stop-color:#E6E6E6"/>
		</linearGradient>
		<path class="st0" d="M144.6,53.2c1.2-1.4,2-2.7,2.5-4.1l3.6-11.2c0.4-1.5,0.6-2.5,0.6-3.1c0-1.1-0.3-2.1-0.9-3.1
			c-0.6-1-1.4-1.9-2.4-2.7c-1-0.7-2.1-1.3-3.3-1.8c-1.2-0.5-2.5-0.7-3.7-0.7H86.8L64.9,94.1H92l11-33.8h27c1.7,0,3.5-0.3,5.4-0.9
			c1.8-0.6,3.6-1.5,5.1-2.5C142,55.8,143.4,54.5,144.6,53.2z M120.1,49.1h-13.6l3.7-11.2h13.6L120.1,49.1z"/>
		<linearGradient id="SVGID_2_" gradientUnits="userSpaceOnUse" x1="203.3349" y1="26.501" x2="203.3349" y2="139.064">
			<stop  offset="0.29" style="stop-color:#F2F2F2"/>
			<stop  offset="0.31" style="stop-color:#D9D9D9"/>
		</linearGradient>
		<path class="st1" d="M214.9,105.3c-6.9,0-10.4-2.6-10.4-7.8c0-1.6,0.2-2.7,0.5-3.5L227,26.5h-27l-7.3,22.6h-13.4l7.2-22.6h-26.9
			l-21.9,67.6h27l10.8-33.8H189l-21.8,67.6c-0.3,0.6-0.5,1.4-0.5,2.6c0,2.3,0.9,4.3,2.7,6c1.8,1.7,4.3,2.6,7.6,2.6h81.1l11-33.8
			H214.9z"/>
		<linearGradient id="SVGID_3_" gradientUnits="userSpaceOnUse" x1="240.9983" y1="26.501" x2="240.9983" y2="94.0635">
			<stop  offset="0.49" style="stop-color:#F2F2F2"/>
			<stop  offset="0.51" style="stop-color:#E6E6E6"/>
		</linearGradient>
		<polygon class="st2" points="243.6,94.1 265.5,26.5 238.3,26.5 216.5,94.1 		"/>
	</g>
	<linearGradient id="SVGID_4_" gradientUnits="userSpaceOnUse" x1="389.3121" y1="26.501" x2="389.3121" y2="139.064">
		<stop  offset="0.29" style="stop-color:#F2F2F2"/>
		<stop  offset="0.31" style="stop-color:#E6E6E6"/>
	</linearGradient>
	<path class="st3" d="M436.6,105.3h-3.8c-6.9,0-10.4-2.6-10.4-7.8c0-1.4,0.2-2.5,0.5-3.5l18.4-56.2c0.5-1.6,0.7-2.9,0.7-4.1
		c0-4.8-3.6-7.3-10.7-7.3h-40.4c-1.7,0-3.5,0.3-5.3,0.9c-1.8,0.6-3.5,1.4-5.1,2.5c-1.6,1-3,2.2-4.2,3.6c-1.2,1.4-2,2.8-2.5,4.4
		L357,89.3l-17.7-37.4l28.5-25.4h-13.6l-19,16.9l5.5-16.9h-27l-21.9,67.6h25.9l4.8-15.5l16.9,49.3c3,7.5,7.8,11.2,14.3,11.2h41.1
		h30.8h50.2l11-33.8H436.6z M400.7,37.8h13.4l-3.6,11.2H397L400.7,37.8z M369.1,104.7c-1.4-0.4-2.6-1-3.7-1.8
		c-1.1-0.9-2.2-2-3.1-3.5c-1-1.4-2-3.2-3-5.4h23.2l11-33.8H407l-14.6,45h-18.7C372,105.3,370.4,105.1,369.1,104.7z"/>
	<linearGradient id="SVGID_5_" gradientUnits="userSpaceOnUse" x1="476.8465" y1="26.501" x2="476.8465" y2="94.0635">
		<stop  offset="0.49" style="stop-color:#F2F2F2"/>
		<stop  offset="0.51" style="stop-color:#E6E6E6"/>
	</linearGradient>
	<path class="st4" d="M515.9,49.1c-0.5,1.4-1.3,2.8-2.5,4.1c-1.2,1.4-2.6,2.6-4.1,3.6c-1.6,1.1-3.3,1.9-5.1,2.5
		c-1.8,0.6-3.6,0.9-5.4,0.9h-27l-11,33.8h-27.1l21.9-67.6h54.1c1.2,0,2.5,0.2,3.7,0.7c1.2,0.5,2.3,1,3.3,1.8c1,0.7,1.8,1.6,2.4,2.7
		c0.6,1,0.9,2.1,0.9,3.1c0,0.6-0.2,1.6-0.6,3.1L515.9,49.1z M488.9,49.1l3.7-11.2H479l-3.7,11.2H488.9z"/>
	<linearGradient id="SVGID_6_" gradientUnits="userSpaceOnUse" x1="553.2852" y1="26.501" x2="553.2852" y2="94.0635">
		<stop  offset="0.49" style="stop-color:#F2F2F2"/>
		<stop  offset="0.51" style="stop-color:#E6E6E6"/>
	</linearGradient>
	<path class="st5" d="M592.3,49.1c-0.5,1.4-1.3,2.8-2.5,4.1c-1.2,1.4-2.6,2.6-4.1,3.6c-1.6,1.1-3.3,1.9-5.1,2.5
		c-1.8,0.6-3.6,0.9-5.4,0.9h-27l-11,33.8h-27.1L532,26.5h54.1c1.2,0,2.5,0.2,3.7,0.7c1.2,0.5,2.3,1,3.3,1.8c1,0.7,1.8,1.6,2.4,2.7
		c0.6,1,0.9,2.1,0.9,3.1c0,0.6-0.2,1.6-0.6,3.1L592.3,49.1z M565.3,49.1l3.7-11.2h-13.6l-3.7,11.2H565.3z"/>
	<linearGradient id="SVGID_7_" gradientUnits="userSpaceOnUse" x1="767.0038" y1="26.501" x2="767.0038" y2="139.064">
		<stop  offset="0.29" style="stop-color:#F2F2F2"/>
		<stop  offset="0.31" style="stop-color:#E6E6E6"/>
	</linearGradient>
	<path class="st6" d="M897.9,105.3c-3.1,0-5.6-0.8-7.5-2.3c-1.8-1.6-2.8-3.7-2.8-6.3c0-0.5,0-0.9,0.1-1.4c0-0.4,0.1-0.8,0.2-1.2
		l11-33.8h-27l-3.6,11.2h-13.6l11-33.7h40.6l3.6-11.3H856c-1.7,0-3.5,0.3-5.3,1c-1.8,0.7-3.5,1.5-5.1,2.6c-1.6,1.1-3,2.3-4.3,3.6
		c-1.2,1.4-2.1,2.7-2.6,4.1l-14.5,45c-0.2,0.9-0.4,1.8-0.4,2.7c0,2.3,0.9,4.3,2.7,6c1.8,1.7,4.3,2.5,7.5,2.5h27l-3.6,11.2h-34.1
		c-6.9,0-10.4-2.6-10.4-7.8c0-1.4,0.2-2.5,0.5-3.5l18.4-56.2c0.5-1.6,0.7-2.9,0.7-4.1c0-4.8-3.6-7.3-10.7-7.3h-40.4
		c-1.7,0-3.5,0.3-5.3,0.9c-1.8,0.6-3.5,1.4-5.1,2.5c-1.6,1-3,2.2-4.2,3.6c-1.2,1.4-2,2.8-2.5,4.4L746,94.1h27l11-33.8h13.6l-14.6,45
		h-41.5c-7.1,0-10.6-2.3-10.6-7c0-1.2,0.2-2.5,0.7-4.2L750,37.8h13.3l3.8-11.3H713l-3.6,11.3H723l-22,67.4h-41.6
		c-6.9,0-10.4-2.6-10.4-7.8c0-1.4,0.2-2.5,0.5-3.5l18.4-56.2c0.5-1.6,0.7-2.9,0.7-4.1c0-4.8-3.6-7.3-10.7-7.3h-40.4
		c-1.7,0-3.5,0.3-5.3,0.9c-1.8,0.6-3.5,1.4-5.1,2.5c-1.6,1-3,2.2-4.2,3.6c-1.2,1.4-2,2.8-2.5,4.4l-18.2,56.2h27l11-33.8h13.6
		l-21.9,67.6c-0.3,0.6-0.5,1.4-0.5,2.6c0,1.2,0.3,2.4,0.9,3.5c0.6,1.1,1.4,2,2.3,2.7c1,0.7,2.1,1.3,3.3,1.8c1.2,0.5,2.5,0.7,3.7,0.7
		h81l0,0c0.4,0,0.7,0,1.1,0h81l0,0c0.3,0,0.6,0,0.8,0h74.5h6.5H941l11-33.8H897.9z M637.2,49.1h-13.6l3.7-11.2h13.4L637.2,49.1z
		 M801.2,49.1h-13.6l3.7-11.2h13.4L801.2,49.1z"/>
</g>
<linearGradient id="SVGID_8_" gradientUnits="userSpaceOnUse" x1="63.5537" y1="164.7686" x2="951.8243" y2="164.7686">
	<stop  offset="0.49" style="stop-color:#F2F2F2"/>
	<stop  offset="0.51" style="stop-color:#E6E6E6"/>
</linearGradient>
<path class="st7" d="M933,152.4h-7.6H76.1c-3.3,0-5.8,0.9-7.6,2.6c-1.4,1.4-2.3,3-2.5,4.7h0l-2,6.3c-0.3,0.6-0.5,1.4-0.5,2.6
	c0,2.3,0.9,4.3,2.7,6c1.8,1.7,4.3,2.6,7.6,2.6h869.7l8.3-24.8H933z"/>
</svg>
