<?xml version="1.0" encoding="utf-8"?>
<!-- Generator: Adobe Illustrator 19.2.1, SVG Export Plug-In . SVG Version: 6.00 Build 0)  -->
<svg version="1.1" id="Layer_1" xmlns="http://www.w3.org/2000/svg" xmlns:xlink="http://www.w3.org/1999/xlink" x="0px" y="0px"
	 viewBox="0 0 2000 564.6" style="enable-background:new 0 0 2000 564.6;" xml:space="preserve">
<style type="text/css">
	.st0{fill:url(#SVGID_1_);stroke:#50B848;stroke-width:15;stroke-miterlimit:10;}
	.st1{fill:url(#SVGID_2_);stroke:#50B848;stroke-width:15;stroke-miterlimit:10;}
	.st2{fill:url(#SVGID_3_);stroke:#50B848;stroke-width:15;stroke-miterlimit:10;}
</style>
<g>
	<linearGradient id="SVGID_1_" gradientUnits="userSpaceOnUse" x1="412.1867" y1="79.2097" x2="412.1867" y2="494.4786">
		<stop  offset="0.29" style="stop-color:#F2F2F2"/>
		<stop  offset="0.31" style="stop-color:#E6E6E6"/>
	</linearGradient>
	<path class="st0" d="M552.5,369.9c-25.5,0-38.2-9.6-38.2-28.7c0-5.2,0.6-9.4,1.8-12.7l67.8-207.4c1.8-5.8,2.7-10.8,2.7-15
		c0-17.9-13.2-26.8-39.6-26.8H397.9c-6.4,0-12.9,1.1-19.6,3.4c-6.7,2.3-13,5.3-18.9,9.1c-5.9,3.8-11.1,8.2-15.5,13.2
		c-4.4,5-7.5,10.4-9.3,16.1l-67.3,207.4h99.6l40.5-124.6h50l-53.9,166h-153c-26.1,0-39.1-8.6-39.1-25.9c0-4.3,0.9-9.4,2.7-15.5
		l67.8-207.4H331l14.1-41.8H145.4l-13.2,41.8h50L74,453.1c-0.9,3.3-1.4,6.8-1.4,10.5c0,8.8,3.6,16.1,10.7,22.1
		c7.1,5.9,16.1,8.9,27.1,8.9h298.8l0-0.1c1,0.1,2.1,0.1,3.1,0.1h298.8l40.5-124.6H552.5z M470.6,162.4h-50l13.6-41.4h49.6
		L470.6,162.4z"/>
	<linearGradient id="SVGID_2_" gradientUnits="userSpaceOnUse" x1="722.3802" y1="79.2097" x2="722.3802" y2="328.4625">
		<stop  offset="0.49" style="stop-color:#F2F2F2"/>
		<stop  offset="0.51" style="stop-color:#E6E6E6"/>
	</linearGradient>
	<path class="st1" d="M814,287.1c-1.8,5.8-5,11.1-9.6,16.1c-4.5,5-9.8,9.4-15.7,13.2c-5.9,3.8-12.2,6.8-18.9,8.9
		c-6.7,2.1-13.2,3.2-19.6,3.2H601.2c-10.6,0-19.6-3.1-26.8-9.3c-7.3-6.2-10.9-13.7-10.9-22.5c0-3,0.5-6.2,1.4-9.6l67.8-207.9h99.2
		l-53.7,166h49.6l54.1-166h99.6L814,287.1z"/>
	<linearGradient id="SVGID_3_" gradientUnits="userSpaceOnUse" x1="1449.4307" y1="79.2097" x2="1449.4307" y2="494.4786">
		<stop  offset="0.29" style="stop-color:#F2F2F2"/>
		<stop  offset="0.31" style="stop-color:#E6E6E6"/>
	</linearGradient>
	<path class="st2" d="M1727.3,369.9c-11.5,0-20.7-2.9-27.5-8.6c-6.8-5.8-10.2-13.5-10.2-23.2c0-1.8,0.1-3.5,0.2-5
		c0.2-1.5,0.4-3,0.7-4.5l40.5-124.6h-99.6l-13.2,41.4h-50l40.5-124.2h149.6l13.2-41.8h-198.8c-6.4,0-12.9,1.2-19.6,3.6
		c-6.7,2.4-13,5.6-18.9,9.6c-5.9,3.9-11.1,8.4-15.7,13.4s-7.7,10.1-9.6,15.2l-53.7,166c-0.9,3.3-1.4,6.7-1.4,10
		c0,8.5,3.3,15.8,10,22.1c6.7,6.2,15.9,9.3,27.7,9.3h99.6l-13.4,41.4h-125.7c-25.5,0-38.2-9.6-38.2-28.7c0-5.2,0.6-9.4,1.8-12.7
		l67.8-207.4c1.8-5.8,2.7-10.8,2.7-15c0-17.9-13.2-26.8-39.6-26.8h-149.2c-6.4,0-12.9,1.1-19.6,3.4c-6.7,2.3-13,5.3-18.9,9.1
		c-5.9,3.8-11.1,8.2-15.5,13.2c-4.4,5-7.5,10.4-9.3,16.1L1167,328.5h99.6l40.5-124.6h50l-53.9,166h-153c-26.1,0-39.1-8.6-39.1-25.9
		c0-4.3,0.9-9.4,2.7-15.5l67.8-207.4h49.1l14.1-41.8h-199.7l-13.2,41.8h50l-108.3,332c-0.9,3.3-1.4,6.8-1.4,10.5
		c0,8.8,3.6,16.1,10.7,22.1c7.1,5.9,16.1,8.9,27.1,8.9h298.8l0-0.1c1,0.1,2.1,0.1,3.1,0.1h274.7h24.1h275.2l40.5-124.6H1727.3z
		 M1370.3,162.4h-50l13.6-41.4h49.6L1370.3,162.4z"/>
</g>
</svg>
