<?xml version="1.0" encoding="utf-8"?>
<!-- Generator: Adobe Illustrator 19.2.1, SVG Export Plug-In . SVG Version: 6.00 Build 0)  -->
<svg version="1.1" id="Layer_1" xmlns="http://www.w3.org/2000/svg" xmlns:xlink="http://www.w3.org/1999/xlink" x="0px" y="0px"
	 viewBox="0 0 1720.1 511.2" style="enable-background:new 0 0 1720.1 511.2;" xml:space="preserve">
<style type="text/css">
	.st0{fill:url(#SVGID_1_);stroke:#50B848;stroke-width:14.6061;stroke-miterlimit:10;}
	.st1{fill:url(#SVGID_2_);stroke:#50B848;stroke-width:14.6061;stroke-miterlimit:10;}
	.st2{fill:url(#SVGID_3_);stroke:#50B848;stroke-width:14.6061;stroke-miterlimit:10;}
	.st3{fill:url(#SVGID_4_);stroke:#50B848;stroke-width:14.6061;stroke-miterlimit:10;}
	.st4{fill:url(#SVGID_5_);stroke:#50B848;stroke-width:14.6061;stroke-miterlimit:10;}
	.st5{fill:url(#SVGID_6_);stroke:#50B848;stroke-width:14.6061;stroke-miterlimit:10;}
	.st6{fill:#F1F2F2;stroke:#50B848;stroke-width:8.3463;stroke-miterlimit:10;}
</style>
<g>
	<g>
		<linearGradient id="SVGID_1_" gradientUnits="userSpaceOnUse" x1="152.9797" y1="26.7738" x2="152.9797" y2="342.6199">
			<stop  offset="0.57" style="stop-color:#F2F2F2"/>
			<stop  offset="0.59" style="stop-color:#E0E0E0"/>
		</linearGradient>
		<path class="st0" d="M255.9,95.2h-78.4l-70.8,247.4H28.8L99.6,95.2H18.4l31.6-68.5h237.5L255.9,95.2z"/>
		<linearGradient id="SVGID_2_" gradientUnits="userSpaceOnUse" x1="321.7599" y1="26.3011" x2="321.7599" y2="342.6199">
			<stop  offset="0.57" style="stop-color:#F2F2F2"/>
			<stop  offset="0.59" style="stop-color:#E0E0E0"/>
		</linearGradient>
		<path class="st1" d="M455.1,342.6h-77.4l1.9-46.7h-96.8l-25,46.7h-77l136-247.9h-19.4l32.1-68.5h133.1L455.1,342.6z M382,227.4
			l5.2-126.1l-68,126.1H382z"/>
		<linearGradient id="SVGID_3_" gradientUnits="userSpaceOnUse" x1="658.2758" y1="26.3011" x2="658.2758" y2="342.6199">
			<stop  offset="0.57" style="stop-color:#F2F2F2"/>
			<stop  offset="0.59" style="stop-color:#E0E0E0"/>
		</linearGradient>
		<path class="st2" d="M820.6,26.3l-91.1,316.3H531.6c-13.2,0-23.1-4.7-29.5-14.2c-6.5-9.4-7.8-20.8-4-34l77-268.2h77.9l-71.3,247.9
			h89.2l71.3-247.9H820.6z"/>
		<linearGradient id="SVGID_4_" gradientUnits="userSpaceOnUse" x1="1050.9381" y1="26.7738" x2="1050.9381" y2="342.6199">
			<stop  offset="0.57" style="stop-color:#F2F2F2"/>
			<stop  offset="0.59" style="stop-color:#E0E0E0"/>
		</linearGradient>
		<path class="st3" d="M1153.9,95.2h-78.4l-70.8,247.4h-77.9l70.8-247.4h-81.2L948,26.8h237.5L1153.9,95.2z"/>
		<linearGradient id="SVGID_5_" gradientUnits="userSpaceOnUse" x1="1219.7184" y1="26.3011" x2="1219.7184" y2="342.6199">
			<stop  offset="0.57" style="stop-color:#F2F2F2"/>
			<stop  offset="0.59" style="stop-color:#E0E0E0"/>
		</linearGradient>
		<path class="st4" d="M1353.1,342.6h-77.4l1.9-46.7h-96.8l-25,46.7h-77l136-247.9h-19.4l32.1-68.5h133.1L1353.1,342.6z
			 M1279.9,227.4l5.2-126.1l-68,126.1H1279.9z"/>
		<linearGradient id="SVGID_6_" gradientUnits="userSpaceOnUse" x1="1541.1591" y1="26.7738" x2="1541.1591" y2="342.6199">
			<stop  offset="0.57" style="stop-color:#F2F2F2"/>
			<stop  offset="0.59" style="stop-color:#E0E0E0"/>
		</linearGradient>
		<path class="st5" d="M1619.8,342.6H1422c-13.2,0-23.2-4.7-30-14.2c-6.8-9.4-8.3-20.8-4.5-34l62.8-219.5c1.9-6.6,5-12.8,9.2-18.6
			c4.2-5.8,9.1-10.9,14.6-15.3c5.5-4.4,11.6-7.9,18.2-10.4c6.6-2.5,13.2-3.8,19.8-3.8h184.6l-32.1,68.5h-141.2l-51.5,178.9h88.8
			l16.1-56.2h-50.5l32.6-68.5h116.1L1619.8,342.6z"/>
	</g>
	<g>
		<path class="st6" d="M1397.3,395.6l-8.5,30c-0.6,2.2-1.6,4.1-3.1,5.9c-1.4,1.8-3.1,3.3-4.9,4.6c-1.8,1.3-3.7,2.3-5.8,3.1
			c-2.1,0.8-4.1,1.3-6,1.5l-40.5,4l-4.5,15.9h52.2l-10.8,22.7h-73.7l13-45.5c1-3.5,2.5-6.3,4.6-8.3c2-2.1,4.1-3.6,6.2-4.6
			c2.1-1,4-1.7,5.7-2c1.7-0.3,2.7-0.5,3-0.5l40.9-4l4.6-16.2h-51.6l10.3-22.4h57.6c4.3,0,7.6,1.5,9.7,4.6
			C1398.1,387.6,1398.6,391.3,1397.3,395.6z"/>
		<path class="st6" d="M1479.8,380c4.3,0,7.6,1.5,9.8,4.6c2.2,3.1,2.7,6.8,1.5,11.1l-20.5,71.8c-0.6,2.2-1.6,4.2-3,6.1
			c-1.4,1.9-3,3.6-4.8,5c-1.8,1.4-3.8,2.6-5.9,3.4c-2.2,0.8-4.3,1.2-6.5,1.2h-48.9c-4.3,0-7.6-1.5-9.8-4.6
			c-2.2-3.1-2.7-6.8-1.5-11.1l20.5-71.8c0.6-2.2,1.6-4.2,3-6.1c1.4-1.9,3-3.6,4.8-5c1.8-1.4,3.8-2.6,5.9-3.4
			c2.2-0.8,4.3-1.2,6.5-1.2H1479.8z M1463.7,402.4h-29.2l-16.8,58.5h29.2L1463.7,402.4z"/>
		<path class="st6" d="M1537.8,379.9L1508,483.3h-25.5l23.3-81.1h-6.6l10.5-22.4H1537.8z"/>
		<path class="st6" d="M1604.1,422.5c1.9,0,3.6,0.4,5.2,1.2c1.6,0.8,3,1.8,4.1,3.2c1.1,1.3,1.8,2.9,2.2,4.8c0.4,1.9,0.2,3.9-0.4,6
			l-8.5,30c-0.6,2.2-1.6,4.2-3,6.1c-1.4,1.9-3,3.6-4.8,5c-1.8,1.4-3.8,2.6-5.9,3.4c-2.2,0.8-4.3,1.2-6.5,1.2h-48.2
			c-4.3,0-7.6-1.5-9.7-4.6c-2.2-3.1-2.6-6.8-1.4-11.1l20.5-71.8c0.6-2.2,1.6-4.2,2.9-6.1c1.3-1.9,2.9-3.6,4.8-4.9
			c1.9-1.4,3.8-2.5,5.9-3.3c2.1-0.8,4.2-1.2,6.4-1.2h58.4l-10.5,22.4h-44.2l-5.7,19.9H1604.1z M1582.9,460.9l4.6-16.1h-28.3
			l-4.6,16.1H1582.9z"/>
	</g>
</g>
</svg>
